<?xml version="1.0" encoding="UTF-8"?>
<svg version="1.1" xmlns="http://www.w3.org/2000/svg" width="200" height="200">
<path d="M0 0 C2.6015625 -0.29296875 2.6015625 -0.29296875 5.625 -0.1875 C6.62789063 -0.16042969 7.63078125 -0.13335937 8.6640625 -0.10546875 C9.43492187 -0.07066406 10.20578125 -0.03585938 11 0 C12.12701852 3.38105557 11.89937329 4.02196871 10.77172852 7.25830078 C10.32947182 8.5495562 10.32947182 8.5495562 9.87828064 9.86689758 C9.54848709 10.80027451 9.21869354 11.73365143 8.87890625 12.6953125 C8.5435939 13.66796555 8.20828156 14.64061859 7.86280823 15.64274597 C6.77071283 18.80633282 5.66662682 21.9655945 4.5625 25.125 C3.07793894 29.41135108 1.5993344 33.69974698 0.12109375 37.98828125 C-0.42242737 39.56119179 -0.42242737 39.56119179 -0.97692871 41.1658783 C-4.07948237 50.16748303 -7.01623872 59.21045084 -9.79077148 68.31884766 C-10.06348877 69.19976074 -10.33620605 70.08067383 -10.6171875 70.98828125 C-10.84003418 71.72602783 -11.06288086 72.46377441 -11.29248047 73.22387695 C-12 75 -12 75 -14 77 C-15.96484375 77.00390625 -15.96484375 77.00390625 -18 76 C-19.37890625 73.33984375 -19.37890625 73.33984375 -20.5625 69.9375 C-20.95566406 68.83277344 -21.34882812 67.72804688 -21.75390625 66.58984375 C-22.16511719 65.40519531 -22.57632813 64.22054687 -23 63 C-23.48121562 61.71886092 -23.96571415 60.43895118 -24.453125 59.16015625 C-26.15543041 54.64733318 -27.67700944 50.07995656 -29.1875 45.5 C-29.46013672 44.67757812 -29.73277344 43.85515625 -30.01367188 43.0078125 C-30.67717292 41.00566899 -31.3387862 39.00290004 -32 37 C-35.2112859 43.94311266 -37.96456886 51.01763809 -40.625 58.1875 C-41.01945312 59.24130859 -41.41390625 60.29511719 -41.8203125 61.38085938 C-43.62875854 66.22883889 -45.41706624 71.07248039 -47 76 C-49.475 76.495 -49.475 76.495 -52 77 C-55.52742046 73.16630651 -56.61075542 68.54878727 -58.125 63.6875 C-61.07647801 54.48707542 -64.44403802 45.50968459 -68.06689453 36.5534668 C-68.43411621 35.63863525 -68.80133789 34.72380371 -69.1796875 33.78125 C-69.50694824 32.97751953 -69.83420898 32.17378906 -70.17138672 31.34570312 C-71.03588762 28.89840653 -71.63254492 26.56941439 -72 24 C-71 23 -71 23 -68.49609375 22.90234375 C-67.48675781 22.91394531 -66.47742188 22.92554687 -65.4375 22.9375 C-64.42558594 22.94652344 -63.41367188 22.95554687 -62.37109375 22.96484375 C-61.19740234 22.98224609 -61.19740234 22.98224609 -60 23 C-59.26828608 24.72809031 -58.53983485 26.45756202 -57.8125 28.1875 C-57.40644531 29.15042969 -57.00039062 30.11335938 -56.58203125 31.10546875 C-54.27516197 36.69178982 -52.15668423 42.35451518 -50 48 C-49.68248779 47.11739502 -49.36497559 46.23479004 -49.0378418 45.32543945 C-47.85111477 42.03450668 -46.65968734 38.74535461 -45.46508789 35.45727539 C-44.95018793 34.03705682 -44.43714052 32.61616513 -43.92602539 31.19458008 C-43.18868744 29.14482365 -42.44459923 27.09762467 -41.69921875 25.05078125 C-41.25408936 23.82012939 -40.80895996 22.58947754 -40.3503418 21.3215332 C-39.1132043 18.27845679 -37.96222888 15.63490498 -36 13 C-32.4375 12.5625 -32.4375 12.5625 -29 13 C-26.65189694 15.34810306 -26.17822143 17.01887722 -25.16015625 20.1640625 C-24.81919922 21.20433594 -24.47824219 22.24460937 -24.12695312 23.31640625 C-23.77568359 24.40824219 -23.42441406 25.50007813 -23.0625 26.625 C-20.83651637 33.47227433 -18.59433423 40.2823822 -16 47 C-13.89376018 41.53517196 -12.03834673 36.06190354 -10.37109375 30.44921875 C-9.88879635 28.84826979 -9.4063708 27.24735943 -8.92382812 25.64648438 C-8.17594534 23.15411751 -7.42967991 20.66128656 -6.68579102 18.16772461 C-5.96021318 15.73940049 -5.22853702 13.31297939 -4.49609375 10.88671875 C-4.16477699 9.76640511 -4.16477699 9.76640511 -3.82676697 8.62345886 C-2.84076342 5.36778054 -1.9018083 2.85271245 0 0 Z " fill="#C43DE1" transform="translate(132,61)"/>
<path d="M0 0 C3.5625 -0.4375 3.5625 -0.4375 7 0 C10.36805859 3.36805859 11.21800029 8.04143775 12.6875 12.5 C13.02072266 13.47582031 13.35394531 14.45164062 13.69726562 15.45703125 C14.16229492 16.85501953 14.16229492 16.85501953 14.63671875 18.28125 C14.92248779 19.13783203 15.20825684 19.99441406 15.50268555 20.87695312 C16 23 16 23 15 25 C10.40774487 16.738041 10.40774487 16.738041 11 12 C10.01 12 9.02 12 8 12 C7.505 8.04 7.505 8.04 7 4 C4.69 3.34 2.38 2.68 0 2 C-0.0825 3.155 -0.165 4.31 -0.25 5.5 C-0.63312367 8.68159225 -1.34760237 10.91552234 -2.9375 13.6875 C-5.79244151 18.95654646 -6.99183006 25.02777608 -7 31 C-5.66360967 32.90265205 -5.66360967 32.90265205 -4 34 C-1.74138003 29.06612142 0.40109514 24.19644079 2 19 C2.495 19.99 2.495 19.99 3 21 C3.63679688 21.27585937 4.27359375 21.55171875 4.9296875 21.8359375 C9.33307425 24.31180401 10.26210958 30.63709246 11.6953125 35.2265625 C12.78942366 39.21775674 13.20639793 42.8720414 13 47 C10.72942838 44.72942838 10.25838286 43.23873248 9.2734375 40.2109375 C8.9640625 39.26992187 8.6546875 38.32890625 8.3359375 37.359375 C7.86027344 35.88210937 7.86027344 35.88210937 7.375 34.375 C6.88773438 32.88613281 6.88773438 32.88613281 6.390625 31.3671875 C5.58834762 28.91316257 4.79172414 26.45744591 4 24 C0.7887141 30.94311266 -1.96456886 38.01763809 -4.625 45.1875 C-5.01945312 46.24130859 -5.41390625 47.29511719 -5.8203125 48.38085938 C-7.62875854 53.22883889 -9.41706624 58.07248039 -11 63 C-13.475 63.495 -13.475 63.495 -16 64 C-19.52742046 60.16630651 -20.61075542 55.54878727 -22.125 50.6875 C-25.07647801 41.48707542 -28.44403802 32.50968459 -32.06689453 23.5534668 C-32.43411621 22.63863525 -32.80133789 21.72380371 -33.1796875 20.78125 C-33.50694824 19.97751953 -33.83420898 19.17378906 -34.17138672 18.34570312 C-35.03588762 15.89840653 -35.63254492 13.56941439 -36 11 C-35 10 -35 10 -32.49609375 9.90234375 C-30.98208984 9.91974609 -30.98208984 9.91974609 -29.4375 9.9375 C-28.42558594 9.94652344 -27.41367188 9.95554687 -26.37109375 9.96484375 C-25.19740234 9.98224609 -25.19740234 9.98224609 -24 10 C-23.26828608 11.72809031 -22.53983485 13.45756202 -21.8125 15.1875 C-21.40644531 16.15042969 -21.00039062 17.11335938 -20.58203125 18.10546875 C-18.27516197 23.69178982 -16.15668423 29.35451518 -14 35 C-13.68248779 34.11739502 -13.36497559 33.23479004 -13.0378418 32.32543945 C-11.85111477 29.03450668 -10.65968734 25.74535461 -9.46508789 22.45727539 C-8.95018793 21.03705682 -8.43714052 19.61616513 -7.92602539 18.19458008 C-7.18868744 16.14482365 -6.44459923 14.09762467 -5.69921875 12.05078125 C-5.25408936 10.82012939 -4.80895996 9.58947754 -4.3503418 8.3215332 C-3.1132043 5.27845679 -1.96222888 2.63490498 0 0 Z " fill="#7344F2" transform="translate(96,74)"/>
<path d="M0 0 C3.90229607 4.43772739 3.34936791 9.24673431 3.1875 14.8125 C3.17396484 15.69615234 3.16042969 16.57980469 3.14648438 17.49023438 C3.11129217 19.66042023 3.05748985 21.83029033 3 24 C3.62567871 23.98952637 4.25135742 23.97905273 4.89599609 23.96826172 C7.7222901 23.92676809 10.54852011 23.90069527 13.375 23.875 C14.35984375 23.85824219 15.3446875 23.84148437 16.359375 23.82421875 C17.77089844 23.81455078 17.77089844 23.81455078 19.2109375 23.8046875 C20.51490479 23.78897705 20.51490479 23.78897705 21.84521484 23.77294922 C24 24 24 24 26 26 C26.34490322 30.05261287 26.30163882 31.54754176 24 35 C19.90958946 35.58489973 15.80736447 35.4723326 11.67871094 35.44604492 C9.63893998 35.437558 7.60199224 35.46624145 5.5625 35.49804688 C4.27601562 35.49740234 2.98953125 35.49675781 1.6640625 35.49609375 C0.48279785 35.49794678 -0.6984668 35.4997998 -1.91552734 35.50170898 C-5 35 -5 35 -7.38989258 33.35595703 C-9.46707363 30.31656398 -9.47474469 28.47219512 -9.42578125 24.80859375 C-9.41740234 23.61685547 -9.40902344 22.42511719 -9.40039062 21.19726562 C-9.37138672 19.95654297 -9.34238281 18.71582031 -9.3125 17.4375 C-9.30283203 16.19291016 -9.29316406 14.94832031 -9.28320312 13.66601562 C-9.16915513 4.50746538 -9.16915513 4.50746538 -8 1 C-5.13879744 -0.43060128 -3.15989415 -0.38692581 0 0 Z " fill="#0858F6" transform="translate(39,135)"/>
<path d="M0 0 C1.28841797 -0.01611328 2.57683594 -0.03222656 3.90429688 -0.04882812 C5.75958008 -0.04979492 5.75958008 -0.04979492 7.65234375 -0.05078125 C9.35185181 -0.05525269 9.35185181 -0.05525269 11.08569336 -0.05981445 C14.4538707 0.36144942 15.84091774 0.73980848 18.0625 3.3125 C18.54833984 6.26757812 18.54833984 6.26757812 18.5234375 9.84375 C18.51957031 11.12894531 18.51570313 12.41414063 18.51171875 13.73828125 C18.49310791 14.74109131 18.49310791 14.74109131 18.47412109 15.76416016 C18.43762477 17.80552126 18.43310167 19.84506554 18.43359375 21.88671875 C18.34328133 31.89132801 18.34328133 31.89132801 16.0625 35.3125 C12.4375 35.5 12.4375 35.5 9.0625 35.3125 C5.92956565 30.16494907 5.68256165 26.25999378 5.875 20.4375 C5.89530273 19.261875 5.89530273 19.261875 5.91601562 18.0625 C5.95108211 16.14553218 6.00487928 14.22892249 6.0625 12.3125 C5.43682129 12.29268066 4.81114258 12.27286133 4.16650391 12.25244141 C1.33973481 12.15735774 -1.48627815 12.04761254 -4.3125 11.9375 C-5.29734375 11.9065625 -6.2821875 11.875625 -7.296875 11.84375 C-8.70839844 11.78574219 -8.70839844 11.78574219 -10.1484375 11.7265625 C-11.01774902 11.6951416 -11.88706055 11.6637207 -12.78271484 11.63134766 C-14.9375 11.3125 -14.9375 11.3125 -16.9375 9.3125 C-17.25 5.8125 -17.25 5.8125 -16.9375 2.3125 C-11.88064464 -1.0587369 -5.93749765 -0.01480673 0 0 Z " fill="#F72ABB" transform="translate(151.9375,29.6875)"/>
<path d="M0 0 C0.25 3.5 0.25 3.5 0 7 C-2 9 -2 9 -4.24658203 9.22705078 C-5.15778809 9.21657715 -6.06899414 9.20610352 -7.0078125 9.1953125 C-7.99394531 9.18886719 -8.98007812 9.18242188 -9.99609375 9.17578125 C-11.54490234 9.15064453 -11.54490234 9.15064453 -13.125 9.125 C-14.16527344 9.11597656 -15.20554687 9.10695313 -16.27734375 9.09765625 C-18.85179092 9.07403747 -21.42578212 9.04110149 -24 9 C-23.83846436 9.58716797 -23.67692871 10.17433594 -23.51049805 10.77929688 C-22.76393378 14.026905 -22.82887373 17.17285782 -22.8125 20.5 C-22.79832031 21.8096875 -22.78414062 23.119375 -22.76953125 24.46875 C-23.09997357 29.53179847 -23.09997357 29.53179847 -25 32 C-28.625 32.75 -28.625 32.75 -32 33 C-36.59006036 27.96637837 -35.47450165 21.95174252 -35.4375 15.5 C-35.45748047 14.26378906 -35.47746094 13.02757812 -35.49804688 11.75390625 C-35.49740234 10.56667969 -35.49675781 9.37945312 -35.49609375 8.15625 C-35.49794678 7.07150391 -35.4997998 5.98675781 -35.50170898 4.86914062 C-34.87508099 1.28562132 -33.92309173 0.12357885 -31 -2 C-28.63745117 -2.56176758 -28.63745117 -2.56176758 -26.04296875 -2.64453125 C-25.09486328 -2.68126953 -24.14675781 -2.71800781 -23.16992188 -2.75585938 C-22.18572266 -2.77455078 -21.20152344 -2.79324219 -20.1875 -2.8125 C-19.21490234 -2.85052734 -18.24230469 -2.88855469 -17.24023438 -2.92773438 C-3.36913037 -3.36913037 -3.36913037 -3.36913037 0 0 Z " fill="#A640F6" transform="translate(65,32)"/>
<path d="M0 0 C1.670625 0.4021875 1.670625 0.4021875 3.375 0.8125 C5.65628029 5.37506058 4.56002621 11.74057179 4.5625 16.75 C4.57474609 18.05130859 4.58699219 19.35261719 4.59960938 20.69335938 C4.60154297 21.93794922 4.60347656 23.18253906 4.60546875 24.46484375 C4.60957764 25.60945068 4.61368652 26.75405762 4.61791992 27.93334961 C4.375 30.8125 4.375 30.8125 2.375 33.8125 C-3.75465735 35.23723117 -10.10921074 35.03097402 -16.375 35.0625 C-17.41527344 35.083125 -18.45554688 35.10375 -19.52734375 35.125 C-21.02201172 35.13273437 -21.02201172 35.13273437 -22.546875 35.140625 C-23.45018555 35.1499707 -24.35349609 35.15931641 -25.28417969 35.16894531 C-27.625 34.8125 -27.625 34.8125 -29.41894531 33.48339844 C-31.28067395 30.90411285 -31.01790148 28.89022825 -30.625 25.8125 C-27.37110012 23.64323341 -26.49104043 23.57169951 -22.73828125 23.6171875 C-21.80048828 23.62363281 -20.86269531 23.63007813 -19.89648438 23.63671875 C-18.43178711 23.66185547 -18.43178711 23.66185547 -16.9375 23.6875 C-15.94943359 23.69652344 -14.96136719 23.70554688 -13.94335938 23.71484375 C-11.50366235 23.7384157 -9.06445303 23.77131978 -6.625 23.8125 C-6.64071045 23.19205811 -6.6564209 22.57161621 -6.67260742 21.93237305 C-6.73496214 19.12167472 -6.77399148 16.31112188 -6.8125 13.5 C-6.83763672 12.52353516 -6.86277344 11.54707031 -6.88867188 10.54101562 C-6.89833984 9.60322266 -6.90800781 8.66542969 -6.91796875 7.69921875 C-6.9336792 6.83514404 -6.94938965 5.97106934 -6.96557617 5.08081055 C-6.625 2.8125 -6.625 2.8125 -5.33325195 0.99536133 C-3.625 -0.1875 -3.625 -0.1875 0 0 Z " fill="#C638F8" transform="translate(165.625,135.1875)"/>
<path d="M0 0 C2.875 -0.125 2.875 -0.125 6 0 C8 2 8 2 8.1953125 3.9453125 C8.13020833 5.96354167 8.06510417 7.98177083 8 10 C8.99 10 9.98 10 11 10 C11.19335938 10.68707031 11.38671875 11.37414062 11.5859375 12.08203125 C11.97652344 13.43361328 11.97652344 13.43361328 12.375 14.8125 C12.63023438 15.70582031 12.88546875 16.59914063 13.1484375 17.51953125 C13.95266661 20.20467896 13.95266661 20.20467896 16 23 C16.60421492 25.38082853 17.1390323 27.77975094 17.625 30.1875 C18.01558594 32.09595703 18.01558594 32.09595703 18.4140625 34.04296875 C18.60742188 35.01878906 18.80078125 35.99460938 19 37 C18.34 37 17.68 37 17 37 C16.67 37.99 16.34 38.98 16 40 C14.515 40.495 14.515 40.495 13 41 C12.75765625 40.23816406 12.5153125 39.47632813 12.265625 38.69140625 C9.36945652 29.02919224 9.36945652 29.02919224 5 20 C4.01 19.67 3.02 19.34 2 19 C0.35 23.62 -1.3 28.24 -3 33 C-4.65 31.68 -6.3 30.36 -8 29 C-7.19857402 22.08242834 -6.43525868 15.94920269 -2.953125 9.85546875 C-1.34104611 6.71720042 -0.73630182 3.43607514 0 0 Z " fill="#B83CF3" transform="translate(96,76)"/>
<path d="M0 0 C2.6015625 -0.29296875 2.6015625 -0.29296875 5.625 -0.1875 C7.12933594 -0.14689453 7.12933594 -0.14689453 8.6640625 -0.10546875 C9.43492187 -0.07066406 10.20578125 -0.03585938 11 0 C12.12018319 3.36054957 11.90181274 4.01723271 10.78515625 7.23046875 C10.51123047 8.03291016 10.23730469 8.83535156 9.95507812 9.66210938 C9.66052734 10.49548828 9.36597656 11.32886719 9.0625 12.1875 C8.77181641 13.03248047 8.48113281 13.87746094 8.18164062 14.74804688 C7.46242463 16.83495229 6.7349657 18.91859994 6 21 C5.01 21 4.02 21 3 21 C2.9175 21.969375 2.835 22.93875 2.75 23.9375 C2.08195328 28.53855415 0.61455891 33.13211285 -2 37 C-4.13671875 37.7578125 -4.13671875 37.7578125 -6 38 C-7.52929007 31.2711237 -7.21843855 23.22084938 -3.95703125 17.015625 C-2.27962361 13.48279912 -2.53437152 9.63266401 -2.34375 5.77734375 C-2 3 -2 3 0 0 Z " fill="#E22DE9" transform="translate(132,61)"/>
<path d="M0 0 C3.5 0.25 3.5 0.25 5.5 2.25 C6.92917603 5.67655493 8.02567704 9.22494998 9.1875 12.75 C9.52072266 13.72582031 9.85394531 14.70164062 10.19726562 15.70703125 C10.66229492 17.10501953 10.66229492 17.10501953 11.13671875 18.53125 C11.42248779 19.38783203 11.70825684 20.24441406 12.00268555 21.12695312 C12.5 23.25 12.5 23.25 11.5 25.25 C6.90774487 16.988041 6.90774487 16.988041 7.5 12.25 C6.51 12.25 5.52 12.25 4.5 12.25 C4.17 9.61 3.84 6.97 3.5 4.25 C1.19 3.59 -1.12 2.93 -3.5 2.25 C-3.5825 3.405 -3.665 4.56 -3.75 5.75 C-4.13312367 8.93159225 -4.84760237 11.16552234 -6.4375 13.9375 C-9.29244151 19.20654646 -10.49183006 25.27777608 -10.5 31.25 C-9.07027874 32.89863741 -9.07027874 32.89863741 -7.5 34.25 C-7.71351394 38.73379277 -8.08322314 42.38315702 -10.5 46.25 C-11.82 46.25 -13.14 46.25 -14.5 46.25 C-14.83 47.57 -15.16 48.89 -15.5 50.25 C-16.16 50.25 -16.82 50.25 -17.5 50.25 C-17.83 48.93 -18.16 47.61 -18.5 46.25 C-20.48 46.745 -20.48 46.745 -22.5 47.25 C-22.685625 46.13625 -22.685625 46.13625 -22.875 45 C-23.3617075 42.28080536 -23.3617075 42.28080536 -24.625 40.1875 C-25.70863003 37.7880335 -25.3677564 36.67971792 -24.5 34.25 C-22.83333333 34.25 -21.16666667 34.25 -19.5 34.25 C-19.17 34.91 -18.84 35.57 -18.5 36.25 C-17.84 36.25 -17.18 36.25 -16.5 36.25 C-16.2628125 35.03183594 -16.025625 33.81367187 -15.78125 32.55859375 C-14.38663265 26.29140928 -12.1938522 20.33683215 -10 14.3125 C-9.59652344 13.17748047 -9.19304687 12.04246094 -8.77734375 10.87304688 C-8.38675781 9.79216797 -7.99617188 8.71128906 -7.59375 7.59765625 C-7.23990234 6.61804932 -6.88605469 5.63844238 -6.52148438 4.62915039 C-4.90064866 0.85404427 -4.17272528 0.29805181 0 0 Z " fill="#8244F8" transform="translate(99.5,73.75)"/>
<path d="M0 0 C1.51400391 0.01740234 1.51400391 0.01740234 3.05859375 0.03515625 C4.07050781 0.04417969 5.08242187 0.05320312 6.125 0.0625 C7.29869141 0.07990234 7.29869141 0.07990234 8.49609375 0.09765625 C8.49609375 1.08765625 8.49609375 2.07765625 8.49609375 3.09765625 C5.85609375 3.09765625 3.21609375 3.09765625 0.49609375 3.09765625 C0.75302002 3.83814209 1.00994629 4.57862793 1.2746582 5.34155273 C2.4531943 8.73922746 3.63089976 12.13718955 4.80859375 15.53515625 C5.21271484 16.69982422 5.61683594 17.86449219 6.03320312 19.06445312 C7.76772271 24.07058689 9.49783961 29.07616062 11.15234375 34.109375 C12.48558696 38.13783632 14.07118756 42.02765288 15.7265625 45.93359375 C16.49609375 48.09765625 16.49609375 48.09765625 16.49609375 51.09765625 C17.98109375 50.60265625 17.98109375 50.60265625 19.49609375 50.09765625 C20.52309819 47.76874529 20.52309819 47.76874529 21.18359375 45.03515625 C21.43496094 44.11605469 21.68632813 43.19695312 21.9453125 42.25 C22.12707031 41.53972656 22.30882813 40.82945313 22.49609375 40.09765625 C23.15609375 40.09765625 23.81609375 40.09765625 24.49609375 40.09765625 C24.61847412 39.23253418 24.74085449 38.36741211 24.86694336 37.47607422 C25.48621391 34.15070909 26.40127433 31.21589522 27.5625 28.04296875 C27.96533203 26.934375 28.36816406 25.82578125 28.78320312 24.68359375 C29.20408203 23.54148437 29.62496094 22.399375 30.05859375 21.22265625 C30.48333984 20.05734375 30.90808594 18.89203125 31.34570312 17.69140625 C32.39120265 14.82509294 33.44146763 11.96062139 34.49609375 9.09765625 C34.99109375 10.08765625 34.99109375 10.08765625 35.49609375 11.09765625 C36.13289063 11.37351562 36.7696875 11.649375 37.42578125 11.93359375 C41.829168 14.40946026 42.75820333 20.73474871 44.19140625 25.32421875 C45.28551741 29.31541299 45.70249168 32.96969765 45.49609375 37.09765625 C43.22552213 34.82708463 42.75447661 33.33638873 41.76953125 30.30859375 C41.46015625 29.36757812 41.15078125 28.4265625 40.83203125 27.45703125 C40.51492187 26.4721875 40.1978125 25.48734375 39.87109375 24.47265625 C39.54625 23.48007813 39.22140625 22.4875 38.88671875 21.46484375 C38.08444137 19.01081882 37.28781789 16.55510216 36.49609375 14.09765625 C33.28480785 21.04076891 30.53152489 28.11529434 27.87109375 35.28515625 C27.47664063 36.33896484 27.0821875 37.39277344 26.67578125 38.47851562 C24.86733521 43.32649514 23.07902751 48.17013664 21.49609375 53.09765625 C19.02109375 53.59265625 19.02109375 53.59265625 16.49609375 54.09765625 C12.96867329 50.26396276 11.88533833 45.64644352 10.37109375 40.78515625 C7.41961574 31.58473167 4.05205573 22.60734084 0.42919922 13.65112305 C0.06197754 12.7362915 -0.30524414 11.82145996 -0.68359375 10.87890625 C-1.01085449 10.07517578 -1.33811523 9.27144531 -1.67529297 8.44335938 C-2.53979387 5.99606278 -3.13645117 3.66707064 -3.50390625 1.09765625 C-2.50390625 0.09765625 -2.50390625 0.09765625 0 0 Z " fill="#6442BF" transform="translate(63.50390625,83.90234375)"/>
<path d="M0 0 C0.25 3.5 0.25 3.5 0 7 C-2 9 -2 9 -4.24658203 9.22705078 C-5.15778809 9.21657715 -6.06899414 9.20610352 -7.0078125 9.1953125 C-7.99394531 9.18886719 -8.98007812 9.18242188 -9.99609375 9.17578125 C-11.54490234 9.15064453 -11.54490234 9.15064453 -13.125 9.125 C-14.16527344 9.11597656 -15.20554687 9.10695313 -16.27734375 9.09765625 C-18.85179092 9.07403747 -21.42578212 9.04110149 -24 9 C-23.83846436 9.58716797 -23.67692871 10.17433594 -23.51049805 10.77929688 C-22.76393378 14.026905 -22.82887373 17.17285782 -22.8125 20.5 C-22.79832031 21.8096875 -22.78414062 23.119375 -22.76953125 24.46875 C-23.09997357 29.53179847 -23.09997357 29.53179847 -25 32 C-28.625 32.75 -28.625 32.75 -32 33 C-36.59006036 27.96637837 -35.47450165 21.95174252 -35.4375 15.5 C-35.45748047 14.26378906 -35.47746094 13.02757812 -35.49804688 11.75390625 C-35.49740234 10.56667969 -35.49675781 9.37945312 -35.49609375 8.15625 C-35.49794678 7.07150391 -35.4997998 5.98675781 -35.50170898 4.86914062 C-34.87508099 1.28562132 -33.92309173 0.12357885 -31 -2 C-28.63745117 -2.56176758 -28.63745117 -2.56176758 -26.04296875 -2.64453125 C-25.09486328 -2.68126953 -24.14675781 -2.71800781 -23.16992188 -2.75585938 C-22.18572266 -2.77455078 -21.20152344 -2.79324219 -20.1875 -2.8125 C-19.21490234 -2.85052734 -18.24230469 -2.88855469 -17.24023438 -2.92773438 C-3.36913037 -3.36913037 -3.36913037 -3.36913037 0 0 Z M-33 1 C-33.08767112 3.07262076 -33.10695873 5.14820294 -33.09765625 7.22265625 C-33.09443359 8.48271484 -33.09121094 9.74277344 -33.08789062 11.04101562 C-33.07953403 12.38151109 -33.07106907 13.72200588 -33.0625 15.0625 C-33.0574866 16.40689942 -33.05292342 17.7513006 -33.04882812 19.09570312 C-33.03699488 22.39717941 -33.02050971 25.69856803 -33 29 C-32.34 29 -31.68 29 -31 29 C-31 29.66 -31 30.32 -31 31 C-30.01 31 -29.02 31 -28 31 C-28 30.34 -28 29.68 -28 29 C-27.34 29 -26.68 29 -26 29 C-25.67 22.07 -25.34 15.14 -25 8 C-16.875 7.625 -16.875 7.625 -14.35107422 7.52197266 C-9.91734429 7.28817301 -6.17902414 6.64223632 -2 5 C-2.33 3.35 -2.66 1.7 -3 0 C-7.1117256 -0.02465746 -11.22342278 -0.04283959 -15.33520508 -0.05493164 C-16.73495228 -0.0599708 -18.1346942 -0.06680216 -19.53442383 -0.07543945 C-21.54245777 -0.0875232 -23.55052957 -0.09269807 -25.55859375 -0.09765625 C-26.76829834 -0.10289307 -27.97800293 -0.10812988 -29.22436523 -0.11352539 C-31.90812017 -0.31775285 -31.90812017 -0.31775285 -33 1 Z " fill="#7A40B6" transform="translate(65,32)"/>
<path d="M0 0 C1.670625 0.4021875 1.670625 0.4021875 3.375 0.8125 C5.65628029 5.37506058 4.56002621 11.74057179 4.5625 16.75 C4.57474609 18.05130859 4.58699219 19.35261719 4.59960938 20.69335938 C4.60154297 21.93794922 4.60347656 23.18253906 4.60546875 24.46484375 C4.60957764 25.60945068 4.61368652 26.75405762 4.61791992 27.93334961 C4.375 30.8125 4.375 30.8125 2.375 33.8125 C-3.75465735 35.23723117 -10.10921074 35.03097402 -16.375 35.0625 C-17.41527344 35.083125 -18.45554688 35.10375 -19.52734375 35.125 C-21.02201172 35.13273437 -21.02201172 35.13273437 -22.546875 35.140625 C-23.45018555 35.1499707 -24.35349609 35.15931641 -25.28417969 35.16894531 C-27.625 34.8125 -27.625 34.8125 -29.41894531 33.48339844 C-31.28067395 30.90411285 -31.01790148 28.89022825 -30.625 25.8125 C-27.37110012 23.64323341 -26.49104043 23.57169951 -22.73828125 23.6171875 C-21.80048828 23.62363281 -20.86269531 23.63007813 -19.89648438 23.63671875 C-18.43178711 23.66185547 -18.43178711 23.66185547 -16.9375 23.6875 C-15.94943359 23.69652344 -14.96136719 23.70554688 -13.94335938 23.71484375 C-11.50366235 23.7384157 -9.06445303 23.77131978 -6.625 23.8125 C-6.64071045 23.19205811 -6.6564209 22.57161621 -6.67260742 21.93237305 C-6.73496214 19.12167472 -6.77399148 16.31112188 -6.8125 13.5 C-6.83763672 12.52353516 -6.86277344 11.54707031 -6.88867188 10.54101562 C-6.89833984 9.60322266 -6.90800781 8.66542969 -6.91796875 7.69921875 C-6.9336792 6.83514404 -6.94938965 5.97106934 -6.96557617 5.08081055 C-6.625 2.8125 -6.625 2.8125 -5.33325195 0.99536133 C-3.625 -0.1875 -3.625 -0.1875 0 0 Z M-1.625 1.8125 C-3.64297305 3.47339283 -4.54036044 4.38643468 -5.05737305 6.98901367 C-5.08355713 7.81119385 -5.10974121 8.63337402 -5.13671875 9.48046875 C-5.17216797 10.37314453 -5.20761719 11.26582031 -5.24414062 12.18554688 C-5.26669922 13.11431641 -5.28925781 14.04308594 -5.3125 15 C-5.34666016 15.94037109 -5.38082031 16.88074219 -5.41601562 17.84960938 C-5.49848218 20.17045393 -5.56763403 22.49092148 -5.625 24.8125 C-6.60895752 24.85008423 -6.60895752 24.85008423 -7.61279297 24.88842773 C-10.57540183 25.0042326 -13.53768031 25.12702886 -16.5 25.25 C-17.53253906 25.28931641 -18.56507813 25.32863281 -19.62890625 25.36914062 C-20.61503906 25.41103516 -21.60117188 25.45292969 -22.6171875 25.49609375 C-23.98399658 25.55108032 -23.98399658 25.55108032 -25.37841797 25.60717773 C-27.65983481 25.67827065 -27.65983481 25.67827065 -29.625 26.8125 C-29.28055119 29.28516765 -29.28055119 29.28516765 -28.625 31.8125 C-24.1622169 34.04389155 -18.02589668 32.99749699 -13.125 33 C-11.23201172 33.01836914 -11.23201172 33.01836914 -9.30078125 33.03710938 C-7.49673828 33.04000977 -7.49673828 33.04000977 -5.65625 33.04296875 C-4.54830078 33.04707764 -3.44035156 33.05118652 -2.29882812 33.05541992 C0.52805957 33.08625955 0.52805957 33.08625955 2.375 30.8125 C2.65361397 27.99538521 2.65361397 27.99538521 2.5703125 24.7109375 C2.56064453 22.89335937 2.56064453 22.89335937 2.55078125 21.0390625 C2.53402344 19.76804688 2.51726562 18.49703125 2.5 17.1875 C2.49097656 15.90875 2.48195312 14.63 2.47265625 13.3125 C2.44902303 10.14564833 2.41607629 6.97916576 2.375 3.8125 C1.055 3.1525 -0.265 2.4925 -1.625 1.8125 Z " fill="#9D41C7" transform="translate(165.625,135.1875)"/>
<path d="M0 0 C3.7822439 4.37157027 3.35545511 8.85611233 3.1875 14.3125 C3.17396484 15.14845703 3.16042969 15.98441406 3.14648438 16.84570312 C3.11131217 18.89741498 3.05751048 20.94879275 3 23 C0.32266002 20.32968716 -0.00280229 18.96278559 -0.29296875 15.109375 C-0.27314945 13.65595991 -0.23754845 12.20268833 -0.1875 10.75 C-0.17396484 10.00492188 -0.16042969 9.25984375 -0.14648438 8.4921875 C-0.11127204 6.66114584 -0.05746851 4.83047831 0 3 C-2.475 2.01 -2.475 2.01 -5 1 C-6.13917218 4.41751653 -6.11338481 7.03487937 -6.09765625 10.63671875 C-6.09443359 11.93544922 -6.09121094 13.23417969 -6.08789062 14.57226562 C-6.07953531 15.94401108 -6.07107037 17.31575587 -6.0625 18.6875 C-6.05748335 20.07096195 -6.05292073 21.45442563 -6.04882812 22.83789062 C-6.03702538 26.22527896 -6.01908967 29.6126449 -6 33 C3.24 32.67 12.48 32.34 22 32 C23.39770584 28.25308553 23.39770584 28.25308553 22 26 C15.73 25.67 9.46 25.34 3 25 C3 24.67 3 24.34 3 24 C6.45826342 23.94210994 9.91640293 23.90644179 13.375 23.875 C14.35984375 23.85824219 15.3446875 23.84148437 16.359375 23.82421875 C17.77089844 23.81455078 17.77089844 23.81455078 19.2109375 23.8046875 C20.51490479 23.78897705 20.51490479 23.78897705 21.84521484 23.77294922 C24 24 24 24 26 26 C26.34490322 30.05261287 26.30163882 31.54754176 24 35 C19.90958946 35.58489973 15.80736447 35.4723326 11.67871094 35.44604492 C9.63893998 35.437558 7.60199224 35.46624145 5.5625 35.49804688 C4.27601562 35.49740234 2.98953125 35.49675781 1.6640625 35.49609375 C0.48279785 35.49794678 -0.6984668 35.4997998 -1.91552734 35.50170898 C-5 35 -5 35 -7.38989258 33.35595703 C-9.46707363 30.31656398 -9.47474469 28.47219512 -9.42578125 24.80859375 C-9.41740234 23.61685547 -9.40902344 22.42511719 -9.40039062 21.19726562 C-9.37138672 19.95654297 -9.34238281 18.71582031 -9.3125 17.4375 C-9.30283203 16.19291016 -9.29316406 14.94832031 -9.28320312 13.66601562 C-9.16915513 4.50746538 -9.16915513 4.50746538 -8 1 C-5.13879744 -0.43060128 -3.15989415 -0.38692581 0 0 Z " fill="#1746B9" transform="translate(39,135)"/>
<path d="M0 0 C0.98613281 0.00322266 1.97226563 0.00644531 2.98828125 0.00976562 C4.02082031 0.01814453 5.05335938 0.02652344 6.1171875 0.03515625 C7.67759766 0.04192383 7.67759766 0.04192383 9.26953125 0.04882812 C11.84380712 0.06063673 14.41796896 0.0771055 16.9921875 0.09765625 C17.40597656 1.06445312 17.40597656 1.06445312 17.828125 2.05078125 C18.83976639 4.38536097 18.83976639 4.38536097 21.6171875 4.84765625 C22.4009375 4.93015625 23.1846875 5.01265625 23.9921875 5.09765625 C23.6621875 5.75765625 23.3321875 6.41765625 22.9921875 7.09765625 C18.53386768 7.12657171 14.07557181 7.14442606 9.6171875 7.16015625 C8.34617188 7.16853516 7.07515625 7.17691406 5.765625 7.18554688 C3.94804687 7.19038086 3.94804687 7.19038086 2.09375 7.1953125 C0.41273193 7.20316772 0.41273193 7.20316772 -1.30224609 7.21118164 C-4.0078125 7.09765625 -4.0078125 7.09765625 -6.0078125 6.09765625 C-6.6328125 3.53515625 -6.6328125 3.53515625 -7.0078125 1.09765625 C-4.50284246 -0.15482877 -2.79927976 -0.01608781 0 0 Z " fill="#A641F7" transform="translate(143.0078125,160.90234375)"/>
<path d="M0 0 C0.66 0.99 1.32 1.98 2 3 C2.99 3.33 3.98 3.66 5 4 C3.33416796 11.57196384 0.67293843 18.73613678 -2 26 C-2.99 26 -3.98 26 -5 26 C-5 25.01 -5 24.02 -5 23 C-5.66 23 -6.32 23 -7 23 C-7.19532961 21.2300132 -7.38098882 19.45895721 -7.5625 17.6875 C-7.66691406 16.70136719 -7.77132812 15.71523437 -7.87890625 14.69921875 C-8 12 -8 12 -7 9 C-6.01 9 -5.02 9 -4 9 C-3.814375 7.7934375 -3.814375 7.7934375 -3.625 6.5625 C-3.41875 5.716875 -3.2125 4.87125 -3 4 C-2.34 3.67 -1.68 3.34 -1 3 C-0.67 2.01 -0.34 1.02 0 0 Z " fill="#A540F5" transform="translate(120,108)"/>
<path d="M0 0 C3.5 0.25 3.5 0.25 5.5 2.25 C6.92917603 5.67655493 8.02567704 9.22494998 9.1875 12.75 C9.52072266 13.72582031 9.85394531 14.70164062 10.19726562 15.70703125 C10.66229492 17.10501953 10.66229492 17.10501953 11.13671875 18.53125 C11.42248779 19.38783203 11.70825684 20.24441406 12.00268555 21.12695312 C12.5 23.25 12.5 23.25 11.5 25.25 C6.90774487 16.988041 6.90774487 16.988041 7.5 12.25 C6.51 12.25 5.52 12.25 4.5 12.25 C4.17 9.61 3.84 6.97 3.5 4.25 C1.19 3.59 -1.12 2.93 -3.5 2.25 C-3.5825 3.405 -3.665 4.56 -3.75 5.75 C-4.13141962 8.922969 -4.83462822 11.12211241 -6.4375 13.875 C-9.10389965 18.67260798 -9.34130491 23.68294119 -9.8125 29.078125 C-10.60594407 32.7387874 -11.65747629 33.90276451 -14.5 36.25 C-15.16 36.91 -15.82 37.57 -16.5 38.25 C-16.05175804 30.98665064 -13.74733235 24.59911472 -11.26196289 17.79345703 C-10.55779057 15.86208318 -9.86890846 13.92572664 -9.18164062 11.98828125 C-4.98697161 0.35621226 -4.98697161 0.35621226 0 0 Z " fill="#A14AC3" transform="translate(99.5,73.75)"/>
<path d="M0 0 C2.97 0 5.94 0 9 0 C11.25621836 5.3585186 12.23575731 9.10606721 12 15 C12.33 15.66 12.66 16.32 13 17 C12.34 17.99 11.68 18.98 11 20 C10.01 19.67 9.02 19.34 8 19 C8.33 18.34 8.66 17.68 9 17 C8.01 16.34 7.02 15.68 6 15 C5.855625 14.05125 5.71125 13.1025 5.5625 12.125 C4.89048487 8.39158259 3.65458599 7.57163017 1 5 C0.25 2.25 0.25 2.25 0 0 Z " fill="#8B44F9" transform="translate(63,86)"/>
<path d="M0 0 C0.33 0 0.66 0 1 0 C1.05422947 1.4370809 1.09289723 2.87475462 1.125 4.3125 C1.14820313 5.11300781 1.17140625 5.91351563 1.1953125 6.73828125 C1 9 1 9 -1 12 C-7.12965735 13.42473117 -13.48421074 13.21847402 -19.75 13.25 C-20.79027344 13.270625 -21.83054688 13.29125 -22.90234375 13.3125 C-24.39701172 13.32023438 -24.39701172 13.32023438 -25.921875 13.328125 C-26.82518555 13.3374707 -27.72849609 13.34681641 -28.65917969 13.35644531 C-31 13 -31 13 -32.79394531 11.67089844 C-34.65567395 9.09161285 -34.39290148 7.07772825 -34 4 C-30.79593538 1.86395692 -30.00399253 1.75791092 -26.33203125 1.8046875 C-25.43935547 1.81113281 -24.54667969 1.81757813 -23.62695312 1.82421875 C-22.23379883 1.84935547 -22.23379883 1.84935547 -20.8125 1.875 C-19.87212891 1.88402344 -18.93175781 1.89304688 -17.96289062 1.90234375 C-15.64167032 1.92590944 -13.32096356 1.95880884 -11 2 C-11 2.33 -11 2.66 -11 3 C-18.26 3.66 -25.52 4.32 -33 5 C-32.67 6.65 -32.34 8.3 -32 10 C-22.43 10 -12.86 10 -3 10 C-1.19669467 6.39338934 -0.53400897 3.91606575 0 0 Z " fill="#7543B6" transform="translate(169,157)"/>
<path d="M0 0 C0.33 0 0.66 0 1 0 C1.04946866 4.07507572 1.08575189 8.15003497 1.10986328 12.2253418 C1.1199157 13.61144048 1.1335597 14.99751799 1.15087891 16.38354492 C1.17515952 18.3766975 1.18542031 20.37000533 1.1953125 22.36328125 C1.20578613 23.56251221 1.21625977 24.76174316 1.22705078 25.99731445 C1 29 1 29 -1 32 C-4.625 32.1875 -4.625 32.1875 -8 32 C-11.61601216 26.42531458 -11.30720059 21.39432346 -11 15 C-10.34 15 -9.68 15 -9 15 C-9 19.29 -9 23.58 -9 28 C-6.36 28 -3.72 28 -1 28 C-1.00523682 27.18732666 -1.01047363 26.37465332 -1.01586914 25.53735352 C-1.03656994 21.87907678 -1.04963803 18.22081233 -1.0625 14.5625 C-1.07506836 12.6434082 -1.07506836 12.6434082 -1.08789062 10.68554688 C-1.09272461 8.86313477 -1.09272461 8.86313477 -1.09765625 7.00390625 C-1.10289307 5.87799072 -1.10812988 4.7520752 -1.11352539 3.59204102 C-1 1 -1 1 0 0 Z " fill="#CD42A5" transform="translate(169,33)"/>
<path d="M0 0 C2.21501545 2.21501545 2.72413878 3.63729495 3.7265625 6.5703125 C4.0359375 7.46621094 4.3453125 8.36210938 4.6640625 9.28515625 C4.98117188 10.22230469 5.29828125 11.15945312 5.625 12.125 C5.94984375 13.06988281 6.2746875 14.01476562 6.609375 14.98828125 C7.41146886 17.32378985 8.20810138 19.66101886 9 22 C8.34 22.33 7.68 22.66 7 23 C7 22.01 7 21.02 7 20 C5.02 20.99 5.02 20.99 3 22 C2.67 21.67 2.34 21.34 2 21 C1.34 21.99 0.68 22.98 0 24 C0 23.34 0 22.68 0 22 C-0.66 22 -1.32 22 -2 22 C-2.86343731 19.71144298 -3.7159811 17.4198072 -4.5625 15.125 C-4.80935547 14.47402344 -5.05621094 13.82304688 -5.31054688 13.15234375 C-5.93173115 11.45502335 -6.47152252 9.72843224 -7 8 C-6.67 7.34 -6.34 6.68 -6 6 C-5.34 6 -4.68 6 -4 6 C-3.9175 7.093125 -3.835 8.18625 -3.75 9.3125 C-3.36310791 13.03276664 -3.36310791 13.03276664 -0.9375 14.9375 C-0.298125 15.288125 0.34125 15.63875 1 16 C1.33 15.67 1.66 15.34 2 15 C1.67 14.34 1.34 13.68 1 13 C1 10.66666667 1 8.33333333 1 6 C0.70814937 3.9935269 0.38830401 1.99005807 0 0 Z " fill="#8144F2" transform="translate(73,88)"/>
<path d="M0 0 C1.29679687 -0.01611328 2.59359375 -0.03222656 3.9296875 -0.04882812 C5.16976562 -0.04947266 6.40984375 -0.05011719 7.6875 -0.05078125 C9.39486328 -0.05525269 9.39486328 -0.05525269 11.13671875 -0.05981445 C14 0.3125 14 0.3125 15.89453125 1.83520508 C16.25933594 2.3227124 16.62414062 2.81021973 17 3.3125 C16.46012451 3.15023926 15.92024902 2.98797852 15.36401367 2.82080078 C12.58023954 2.22224478 10.023631 2.18283653 7.17578125 2.1796875 C5.50999023 2.17775391 5.50999023 2.17775391 3.81054688 2.17578125 C2.07901367 2.18158203 2.07901367 2.18158203 0.3125 2.1875 C-0.85345703 2.18363281 -2.01941406 2.17976563 -3.22070312 2.17578125 C-4.32736328 2.17707031 -5.43402344 2.17835937 -6.57421875 2.1796875 C-7.59088623 2.18081543 -8.60755371 2.18194336 -9.6550293 2.18310547 C-11.95856639 2.04870835 -11.95856639 2.04870835 -13 3.3125 C-13 4.9625 -13 6.6125 -13 8.3125 C-6.73 8.6425 -0.46 8.9725 6 9.3125 C6 9.9725 6 10.6325 6 11.3125 C2.54173658 11.37039006 -0.91640293 11.40605821 -4.375 11.4375 C-5.35984375 11.45425781 -6.3446875 11.47101562 -7.359375 11.48828125 C-8.30039063 11.49472656 -9.24140625 11.50117187 -10.2109375 11.5078125 C-11.51490479 11.52352295 -11.51490479 11.52352295 -12.84521484 11.53955078 C-15 11.3125 -15 11.3125 -17 9.3125 C-17.3125 5.8125 -17.3125 5.8125 -17 2.3125 C-11.93113716 -1.06674189 -5.95118586 -0.01478923 0 0 Z " fill="#BE45A2" transform="translate(152,29.6875)"/>
<path d="M0 0 C1.29039967 3.87119901 0.44513425 5.48876776 -0.80078125 9.34765625 C-1.40116211 11.21454102 -1.40116211 11.21454102 -2.01367188 13.11914062 C-2.22693115 13.7660083 -2.44019043 14.41287598 -2.65991211 15.0793457 C-3.31011266 17.05524509 -3.94412133 19.03580812 -4.57617188 21.01757812 C-7.73457301 30.73457301 -7.73457301 30.73457301 -10 33 C-11.953125 33.0234375 -11.953125 33.0234375 -14 32 C-15.484375 29.1640625 -15.484375 29.1640625 -16.75 25.625 C-17.17796875 24.46226562 -17.6059375 23.29953125 -18.046875 22.1015625 C-19 19 -19 19 -19 16 C-18.01 16.33 -17.02 16.66 -16 17 C-15.67 19.97 -15.34 22.94 -15 26 C-14.34 26 -13.68 26 -13 26 C-13 26.99 -13 27.98 -13 29 C-12.01 29 -11.02 29 -10 29 C-9.85304688 28.3915625 -9.70609375 27.783125 -9.5546875 27.15625 C-7.21072941 17.99595402 -4.24213245 8.4842649 0 0 Z " fill="#8350B5" transform="translate(128,105)"/>
<path d="M0 0 C0.33 0.66 0.66 1.32 1 2 C1.63679688 2.27585937 2.27359375 2.55171875 2.9296875 2.8359375 C7.33307425 5.31180401 8.26210958 11.63709246 9.6953125 16.2265625 C10.78942366 20.21775674 11.20639793 23.8720414 11 28 C8.72942838 25.72942838 8.25838286 24.23873248 7.2734375 21.2109375 C6.809375 19.79941406 6.809375 19.79941406 6.3359375 18.359375 C6.01882812 17.37453125 5.70171875 16.3896875 5.375 15.375 C5.05015625 14.38242188 4.7253125 13.38984375 4.390625 12.3671875 C3.58834762 9.91316257 2.79172414 7.45744591 2 5 C1.73445313 5.60328125 1.46890625 6.2065625 1.1953125 6.828125 C0.84210938 7.62734375 0.48890625 8.4265625 0.125 9.25 C-0.22304687 10.03890625 -0.57109375 10.8278125 -0.9296875 11.640625 C-1.90413905 13.78868608 -2.92986429 15.89829202 -4 18 C-4.66 18 -5.32 18 -6 18 C-4.23536928 11.89262558 -2.30442525 5.92566493 0 0 Z " fill="#904AC8" transform="translate(98,93)"/>
<path d="M0 0 C0.625 2.375 0.625 2.375 1 5 C-1.38125912 7.38125912 -2.10707538 7.34521641 -5.375 7.4375 C-9.08705138 7.37174708 -9.70864932 7.27003234 -12.5625 4.625 C-14 2 -14 2 -14 0 C-12.41773035 -0.19627391 -10.83410729 -0.38165538 -9.25 -0.5625 C-8.36828125 -0.66691406 -7.4865625 -0.77132812 -6.578125 -0.87890625 C-4.11567549 -0.99456676 -2.33461936 -0.73638695 0 0 Z " fill="#1B51F6" transform="translate(62,161)"/>
<path d="M0 0 C1.89213369 2.38573379 3.02391783 4.07175348 4 7 C4.33 7.66 4.66 8.32 5 9 C4.22265625 11.3828125 4.22265625 11.3828125 3.0625 14.125 C2.68222656 15.03507812 2.30195312 15.94515625 1.91015625 16.8828125 C1.60980469 17.58148438 1.30945313 18.28015625 1 19 C-0.65 17.68 -2.3 16.36 -4 15 C-3.71848084 12.87363187 -3.42446737 10.74891472 -3.125 8.625 C-2.96257812 7.44164063 -2.80015625 6.25828125 -2.6328125 5.0390625 C-2 2 -2 2 0 0 Z " fill="#A140F4" transform="translate(92,90)"/>
<path d="M0 0 C2.46278801 2.46278801 2.99771255 4.70676982 4 8 C4.99 5.69 5.98 3.38 7 1 C8.06671952 4.20015856 7.94845472 5.88544294 7.5625 9.1875 C7.46066406 10.08855469 7.35882813 10.98960938 7.25390625 11.91796875 C7.17011719 12.60503906 7.08632812 13.29210937 7 14 C6.34 13.67 5.68 13.34 5 13 C4.896875 13.61875 4.79375 14.2375 4.6875 14.875 C4 17 4 17 1 19 C0.67 19.99 0.34 20.98 0 22 C-0.99 21.67 -1.98 21.34 -3 21 C-2.67 19.02 -2.34 17.04 -2 15 C-1.34 15 -0.68 15 0 15 C2.25318255 12.33017687 2.25318255 12.33017687 1.7578125 10.09765625 C1.54898438 9.42605469 1.34015625 8.75445312 1.125 8.0625 C0.21019294 5.05753251 0 3.28313778 0 0 Z " fill="#A241D7" transform="translate(112,100)"/>
<path d="M0 0 C1.51400391 0.01740234 1.51400391 0.01740234 3.05859375 0.03515625 C4.07050781 0.04417969 5.08242187 0.05320313 6.125 0.0625 C7.29869141 0.07990234 7.29869141 0.07990234 8.49609375 0.09765625 C9.75564606 3.87631318 8.97696564 5.13177411 7.55859375 8.78515625 C7.17832031 9.77902344 6.79804688 10.77289063 6.40625 11.796875 C6.10589844 12.55613281 5.80554688 13.31539062 5.49609375 14.09765625 C5.16609375 14.09765625 4.83609375 14.09765625 4.49609375 14.09765625 C4.49609375 10.79765625 4.49609375 7.49765625 4.49609375 4.09765625 C3.17609375 3.43765625 1.85609375 2.77765625 0.49609375 2.09765625 C0.49609375 2.75765625 0.49609375 3.41765625 0.49609375 4.09765625 C-0.16390625 4.09765625 -0.82390625 4.09765625 -1.50390625 4.09765625 C-1.83390625 5.08765625 -2.16390625 6.07765625 -2.50390625 7.09765625 C-3.16390625 7.09765625 -3.82390625 7.09765625 -4.50390625 7.09765625 C-3.46694712 0.13521635 -3.46694712 0.13521635 0 0 Z " fill="#E23BD5" transform="translate(134.50390625,60.90234375)"/>
<path d="M0 0 C0.66 0.99 1.32 1.98 2 3 C2.99 3.33 3.98 3.66 5 4 C3.125 11.625 3.125 11.625 2 15 C1.34 15 0.68 15 0 15 C0 13.68 0 12.36 0 11 C-1.32 11.33 -2.64 11.66 -4 12 C-4.1875 8.625 -4.1875 8.625 -4 5 C-3.01 4.34 -2.02 3.68 -1 3 C-0.67 2.01 -0.34 1.02 0 0 Z " fill="#B83EFB" transform="translate(120,108)"/>
<path d="M0 0 C2.475 0.99 2.475 0.99 5 2 C4.34 4.97 3.68 7.94 3 11 C2.34 11 1.68 11 1 11 C0.67 11.66 0.34 12.32 0 13 C-0.66 13 -1.32 13 -2 13 C-3.49297212 10.01405576 -3.11755228 7.29146376 -3 4 C-2.67 3.34 -2.34 2.68 -2 2 C-1.34 2 -0.68 2 0 2 C0 1.34 0 0.68 0 0 Z " fill="#F424EB" transform="translate(135,63)"/>
<path d="M0 0 C3.45826342 -0.05789006 6.91640293 -0.09355821 10.375 -0.125 C11.35984375 -0.14175781 12.3446875 -0.15851563 13.359375 -0.17578125 C14.77089844 -0.18544922 14.77089844 -0.18544922 16.2109375 -0.1953125 C17.51490479 -0.21102295 17.51490479 -0.21102295 18.84521484 -0.22705078 C21 0 21 0 23 2 C23.34490322 6.05261287 23.30163882 7.54754176 21 11 C18.47802734 11.34057617 18.47802734 11.34057617 15.3359375 11.29296875 C14.21445312 11.28330078 13.09296875 11.27363281 11.9375 11.26367188 C10.761875 11.23853516 9.58625 11.21339844 8.375 11.1875 C6.59996094 11.16719727 6.59996094 11.16719727 4.7890625 11.14648438 C1.85892461 11.11103916 -1.07031459 11.06162769 -4 11 C-4 10.67 -4 10.34 -4 10 C3.92 9.67 11.84 9.34 20 9 C20.372678 4.372678 20.372678 4.372678 19 2 C12.73 1.67 6.46 1.34 0 1 C0 0.67 0 0.34 0 0 Z " fill="#2B48B0" transform="translate(42,159)"/>
<path d="M0 0 C0.33 1.65 0.66 3.3 1 5 C-3.70461323 6.86132673 -7.8757696 7.2509496 -12.875 7.125 C-13.56335937 7.11597656 -14.25171875 7.10695313 -14.9609375 7.09765625 C-16.64077838 7.07432513 -18.32043746 7.03846326 -20 7 C-20 6.67 -20 6.34 -20 6 C-15.38 5.67 -10.76 5.34 -6 5 C-6 4.01 -6 3.02 -6 2 C-9.3 2.33 -12.6 2.66 -16 3 C-16.33 2.34 -16.66 1.68 -17 1 C-15.10440036 0.83069605 -13.20850769 0.66467136 -11.3125 0.5 C-10.25675781 0.4071875 -9.20101562 0.314375 -8.11328125 0.21875 C-5.39363975 0.0276585 -2.72460144 -0.04043935 0 0 Z " fill="#BC3DEF" transform="translate(62,32)"/>
<path d="M0 0 C0.66 0 1.32 0 2 0 C1.7834375 0.8353125 1.7834375 0.8353125 1.5625 1.6875 C0.71941704 5.15350773 0.05021138 8.58157183 -0.375 12.125 C-1.0307352 15.14138192 -1.52680978 16.21930304 -4 18 C-4.66 18 -5.32 18 -6 18 C-6.625 14.625 -6.625 14.625 -7 11 C-6.34 10.34 -5.68 9.68 -5 9 C-5 9.99 -5 10.98 -5 12 C-3.72746564 8.35206816 -2.67170806 4.8063457 -2 1 C-1.34 1 -0.68 1 0 1 C0 0.67 0 0.34 0 0 Z " fill="#DA32F4" transform="translate(132,81)"/>
<path d="M0 0 C0.33 0 0.66 0 1 0 C1.25161887 7.42275671 1.25161887 7.42275671 -0.0625 10.4375 C-1.49152081 14.34349021 -0.65120643 17.96076011 0 22 C1.32 21.01 2.64 20.02 4 19 C3.67 20.65 3.34 22.3 3 24 C0.36 23.67 -2.28 23.34 -5 23 C-4.67580986 14.76557056 -2.88996879 7.70210288 0 0 Z " fill="#B839E7" transform="translate(123,88)"/>
<path d="M0 0 C1.32 0.33 2.64 0.66 4 1 C5.26264601 5.29299643 4.62950412 7.87831311 3 12 C1.68 11.67 0.36 11.34 -1 11 C-2.25 3.375 -2.25 3.375 0 0 Z " fill="#9245FA" transform="translate(87,106)"/>
<path d="M0 0 C0.66 0.99 1.32 1.98 2 3 C1.34206835 4.67013418 0.67276716 6.3357865 0 8 C-0.15591029 9.68492529 -0.27811097 11.37315286 -0.375 13.0625 C-0.65803292 16.5257937 -0.75756725 17.68718355 -2.9375 20.5 C-3.618125 20.995 -4.29875 21.49 -5 22 C-5.66 22.66 -6.32 23.32 -7 24 C-6.46870624 18.02798909 -5.15389059 13.05383257 -2.9375 7.5 C-2.65583984 6.77296875 -2.37417969 6.0459375 -2.08398438 5.296875 C-1.39741552 3.52808745 -0.69986318 1.76356959 0 0 Z " fill="#8242D5" transform="translate(90,88)"/>
<path d="M0 0 C0.99 0.495 0.99 0.495 2 1 C2 3.64 2 6.28 2 9 C2.99 9.33 3.98 9.66 5 10 C5.33 7.03 5.66 4.06 6 1 C6.33 1 6.66 1 7 1 C7 5.29 7 9.58 7 14 C6.34 14 5.68 14 5 14 C5 14.66 5 15.32 5 16 C4.01 16 3.02 16 2 16 C2 15.34 2 14.68 2 14 C1.34 14 0.68 14 0 14 C0 9.38 0 4.76 0 0 Z " fill="#8845F1" transform="translate(32,47)"/>
<path d="M0 0 C0 1.65 0 3.3 0 5 C5.94 5.33 11.88 5.66 18 6 C18 6.33 18 6.66 18 7 C14.54168414 7.02894547 11.08339928 7.04678 7.625 7.0625 C6.14773437 7.07506836 6.14773437 7.07506836 4.640625 7.08789062 C3.22910156 7.09272461 3.22910156 7.09272461 1.7890625 7.09765625 C0.48509521 7.10551147 0.48509521 7.10551147 -0.84521484 7.11352539 C-3 7 -3 7 -5 6 C-5.625 3.4375 -5.625 3.4375 -6 1 C-4 0 -4 0 0 0 Z " fill="#9543ED" transform="translate(142,161)"/>
<path d="M0 0 C0.33 0 0.66 0 1 0 C1.05423638 1.91635217 1.09289963 3.83314925 1.125 5.75 C1.14820313 6.81734375 1.17140625 7.8846875 1.1953125 8.984375 C1.00226854 11.96497379 0.76273468 13.60448877 -1 16 C-4.625 16.75 -4.625 16.75 -8 17 C-9.5625 15.1875 -9.5625 15.1875 -11 13 C-10.67 12.01 -10.34 11.02 -10 10 C-9.67 10.99 -9.34 11.98 -9 13 C-8.34 13 -7.68 13 -7 13 C-7 13.66 -7 14.32 -7 15 C-6.01 15 -5.02 15 -4 15 C-4 14.34 -4 13.68 -4 13 C-3.34 12.67 -2.68 12.34 -2 12 C-1.30772968 9.19019327 -1.30772968 9.19019327 -0.875 5.9375 C-0.62363281 4.28041016 -0.62363281 4.28041016 -0.3671875 2.58984375 C-0.24601562 1.73519531 -0.12484375 0.88054688 0 0 Z " fill="#684AAD" transform="translate(41,48)"/>
<path d="M0 0 C1.48831242 0.00667405 2.97660807 0.01863442 4.46484375 0.03515625 C5.22345703 0.03966797 5.98207031 0.04417969 6.76367188 0.04882812 C8.64326246 0.06064945 10.52281274 0.07858547 12.40234375 0.09765625 C12.40234375 0.42765625 12.40234375 0.75765625 12.40234375 1.09765625 C7.45234375 1.42765625 2.50234375 1.75765625 -2.59765625 2.09765625 C-2.26765625 4.40765625 -1.93765625 6.71765625 -1.59765625 9.09765625 C-1.9375 12.40625 -1.9375 12.40625 -2.53515625 15.53515625 C-2.72980469 16.58574219 -2.92445312 17.63632812 -3.125 18.71875 C-3.28097656 19.50378906 -3.43695313 20.28882812 -3.59765625 21.09765625 C-3.92765625 21.09765625 -4.25765625 21.09765625 -4.59765625 21.09765625 C-4.62653771 17.78517438 -4.64441424 14.47272458 -4.66015625 11.16015625 C-4.66853516 10.21462891 -4.67691406 9.26910156 -4.68554688 8.29492188 C-4.68876953 7.39580078 -4.69199219 6.49667969 -4.6953125 5.5703125 C-4.70054932 4.73765869 -4.70578613 3.90500488 -4.71118164 3.04711914 C-4.50650462 -0.46760339 -3.651354 0.09911384 0 0 Z " fill="#8B3DCB" transform="translate(43.59765625,38.90234375)"/>
<path d="M0 0 C1.32 0.33 2.64 0.66 4 1 C4.125 4.375 4.125 4.375 4 8 C2 10 2 10 -0.06298828 10.22705078 C-1.30411377 10.21134033 -1.30411377 10.21134033 -2.5703125 10.1953125 C-3.46621094 10.18886719 -4.36210938 10.18242188 -5.28515625 10.17578125 C-6.22230469 10.15902344 -7.15945312 10.14226563 -8.125 10.125 C-9.06988281 10.11597656 -10.01476563 10.10695313 -10.98828125 10.09765625 C-13.32577292 10.07404522 -15.66276123 10.04111516 -18 10 C-18 9.67 -18 9.34 -18 9 C-17.13117187 8.95101562 -16.26234375 8.90203125 -15.3671875 8.8515625 C-14.21476562 8.77679688 -13.06234375 8.70203125 -11.875 8.625 C-10.16957031 8.52058594 -10.16957031 8.52058594 -8.4296875 8.4140625 C-5.04606384 8.00556124 -2.18387559 7.19032431 1 6 C0.67 4.02 0.34 2.04 0 0 Z " fill="#9448B3" transform="translate(61,31)"/>
<path d="M0 0 C8.25 0 16.5 0 25 0 C25.33 0.66 25.66 1.32 26 2 C20.08351245 3.09564584 14.55217508 2.93766323 8.5625 2.5625 C7.17901367 2.48418945 7.17901367 2.48418945 5.76757812 2.40429688 C3.51128464 2.27569984 1.25555971 2.1407929 -1 2 C-0.67 1.34 -0.34 0.68 0 0 Z " fill="#DD30AC" transform="translate(140,31)"/>
<path d="M0 0 C0.66 0 1.32 0 2 0 C3.14535058 2.29070116 3.12897171 3.59582592 3.1328125 6.140625 C3.13410156 6.96433594 3.13539063 7.78804687 3.13671875 8.63671875 C3.13285156 9.49910156 3.12898437 10.36148438 3.125 11.25 C3.12886719 12.09691406 3.13273438 12.94382813 3.13671875 13.81640625 C3.12970785 18.32441198 2.91332033 22.56387267 2 27 C1.67 27 1.34 27 1 27 C0.67 18.09 0.34 9.18 0 0 Z " fill="#A138BD" transform="translate(167,136)"/>
<path d="M0 0 C0.99 0 1.98 0 3 0 C4.32719886 6.96779403 4.08825381 13.92988911 4 21 C3.34 21 2.68 21 2 21 C2 16.71 2 12.42 2 8 C1.34 8 0.68 8 0 8 C0 5.36 0 2.72 0 0 Z " fill="#E72CBB" transform="translate(158,40)"/>
<path d="M0 0 C4.875 0.875 4.875 0.875 6 2 C5.71269945 4.33944736 5.38063221 6.6739143 5 9 C4.67 8.01 4.34 7.02 4 6 C3.01 6.33 2.02 6.66 1 7 C0.34 6.67 -0.32 6.34 -1 6 C-1.33 6.66 -1.66 7.32 -2 8 C-2.20086443 4.28400809 -2.1519437 3.22791555 0 0 Z " fill="#234DEA" transform="translate(34,136)"/>
<path d="M0 0 C3 3.75 3 3.75 3 6 C8.28 6 13.56 6 19 6 C19 6.33 19 6.66 19 7 C12.30386804 7.797837 5.74233419 8.12910853 -1 8 C-0.67 5.36 -0.34 2.72 0 0 Z " fill="#0B4EDD" transform="translate(39,154)"/>
<path d="M0 0 C1.17791932 3.53375797 0.75415072 4.44851107 -0.43359375 7.88671875 C-0.9121582 9.2934082 -0.9121582 9.2934082 -1.40039062 10.72851562 C-1.74263672 11.70498047 -2.08488281 12.68144531 -2.4375 13.6875 C-2.77587891 14.67556641 -3.11425781 15.66363281 -3.46289062 16.68164062 C-4.30059974 19.12397565 -5.14657083 21.56312271 -6 24 C-6.66 23.67 -7.32 23.34 -8 23 C-7.27043113 18.35811807 -5.67448169 14.17642044 -4 9.8125 C-3.59007813 8.72678711 -3.59007813 8.72678711 -3.171875 7.61914062 C-1.16276544 2.32553089 -1.16276544 2.32553089 0 0 Z " fill="#9949C2" transform="translate(128,105)"/>
<path d="M0 0 C2.21501545 2.21501545 2.72413878 3.63729495 3.7265625 6.5703125 C4.0359375 7.46621094 4.3453125 8.36210938 4.6640625 9.28515625 C4.98117188 10.22230469 5.29828125 11.15945312 5.625 12.125 C5.94984375 13.06988281 6.2746875 14.01476562 6.609375 14.98828125 C7.41146886 17.32378985 8.20810138 19.66101886 9 22 C8.34 22.33 7.68 22.66 7 23 C7 22.01 7 21.02 7 20 C6.34 20 5.68 20 5 20 C2.4186862 13.42938306 0 7.14579671 0 0 Z " fill="#7244C1" transform="translate(73,88)"/>
<path d="M0 0 C1.67542976 0.28604898 3.34385343 0.61781233 5 1 C5.33 3.64 5.66 6.28 6 9 C5.01 8.34 4.02 7.68 3 7 C2.01 7.33 1.02 7.66 0 8 C-1 7 -1 7 -1.125 4 C-1 1 -1 1 0 0 Z " fill="#9142FA" transform="translate(67,87)"/>
<path d="M0 0 C0.33 0 0.66 0 1 0 C1 6.93 1 13.86 1 21 C0.34 21 -0.32 21 -1 21 C-2.18982084 13.58773774 -1.67959957 7.30139977 0 0 Z " fill="#C03DEC" transform="translate(167,145)"/>
<path d="M0 0 C0.33 0 0.66 0 1 0 C1.32873343 6.02677947 0.8874859 11.56962527 -2 17 C-2.99 17.33 -3.98 17.66 -5 18 C-1.92482916 5.33029613 -1.92482916 5.33029613 0 0 Z " fill="#BF4EC2" transform="translate(129,68)"/>
<path d="M0 0 C0.33 0 0.66 0 1 0 C1.06058594 0.92941406 1.12117187 1.85882813 1.18359375 2.81640625 C1.79571552 11.94146885 1.79571552 11.94146885 3 21 C1.68 20.34 0.36 19.68 -1 19 C-0.67 12.73 -0.34 6.46 0 0 Z " fill="#B93DF0" transform="translate(161,145)"/>
<path d="M0 0 C2.97 0 5.94 0 9 0 C12.125 7.625 12.125 7.625 11 11 C9.14223235 7.86501708 8.79859524 5.62528568 9 2 C7.35 2 5.7 2 4 2 C3.34 3.32 2.68 4.64 2 6 C1.34 4.02 0.68 2.04 0 0 Z " fill="#8344E3" transform="translate(63,86)"/>
<path d="M0 0 C1.51400391 0.01740234 1.51400391 0.01740234 3.05859375 0.03515625 C4.07050781 0.04417969 5.08242187 0.05320312 6.125 0.0625 C7.29869141 0.07990234 7.29869141 0.07990234 8.49609375 0.09765625 C8.49609375 1.08765625 8.49609375 2.07765625 8.49609375 3.09765625 C5.52609375 3.09765625 2.55609375 3.09765625 -0.50390625 3.09765625 C-0.83390625 4.41765625 -1.16390625 5.73765625 -1.50390625 7.09765625 C-2.16390625 5.11765625 -2.82390625 3.13765625 -3.50390625 1.09765625 C-2.50390625 0.09765625 -2.50390625 0.09765625 0 0 Z " fill="#6C41B1" transform="translate(63.50390625,83.90234375)"/>
<path d="M0 0 C1.485 0.99 1.485 0.99 3 2 C2.125 9.75 2.125 9.75 1 12 C0.34 12 -0.32 12 -1 12 C-0.814375 11.0925 -0.62875 10.185 -0.4375 9.25 C-0.03393523 6.25209026 -0.19760855 4.80837006 -1 2 C-0.67 1.34 -0.34 0.68 0 0 Z " fill="#8D40F0" transform="translate(89,106)"/>
<path d="M0 0 C1.32830615 3.98491845 0.23204404 5.40048548 -1.4375 9.1875 C-1.91058594 10.27417969 -2.38367188 11.36085938 -2.87109375 12.48046875 C-3.42990234 13.72763672 -3.42990234 13.72763672 -4 15 C-4.66 15 -5.32 15 -6 15 C-3.10933941 4.44191344 -3.10933941 4.44191344 0 0 Z " fill="#8847BF" transform="translate(98,96)"/>
<path d="M0 0 C0.99 0.33 1.98 0.66 3 1 C2.67 3.64 2.34 6.28 2 9 C1.01 9.33 0.02 9.66 -1 10 C-1.125 2.25 -1.125 2.25 0 0 Z " fill="#0E53F0" transform="translate(33,142)"/>
<path d="M0 0 C1.32 0.66 2.64 1.32 4 2 C4 3.98 4 5.96 4 8 C2.68 7.67 1.36 7.34 0 7 C-1.125 2.25 -1.125 2.25 0 0 Z " fill="#D336F2" transform="translate(164,137)"/>
<path d="M0 0 C0.66 0.99 1.32 1.98 2 3 C1.1015625 5.91796875 1.1015625 5.91796875 -0.375 9.1875 C-0.85710937 10.27417969 -1.33921875 11.36085938 -1.8359375 12.48046875 C-2.41214844 13.72763672 -2.41214844 13.72763672 -3 15 C-3.66 15 -4.32 15 -5 15 C-1.92482916 4.44191344 -1.92482916 4.44191344 0 0 Z " fill="#864BC1" transform="translate(90,88)"/>
<path d="M0 0 C1.65 0 3.3 0 5 0 C6.25955231 3.77865693 5.48087189 5.03411786 4.0625 8.6875 C3.68222656 9.68136719 3.30195313 10.67523438 2.91015625 11.69921875 C2.60980469 12.45847656 2.30945313 13.21773437 2 14 C1.08627299 11.02538506 1.01154921 8.92552753 1.5625 5.875 C1.706875 4.59625 1.85125 3.3175 2 2 C1.34 1.34 0.68 0.68 0 0 Z " fill="#BC4DB1" transform="translate(138,61)"/>
<path d="M0 0 C0.99 0.33 1.98 0.66 3 1 C3 2.65 3 4.3 3 6 C1.125 7.0625 1.125 7.0625 -1 8 C-1.66 7.67 -2.32 7.34 -3 7 C-1.125 2.25 -1.125 2.25 0 0 Z " fill="#BC40F7" transform="translate(106,94)"/>
<path d="M0 0 C0.66 0 1.32 0 2 0 C1.855625 0.53625 1.71125 1.0725 1.5625 1.625 C0.90546252 4.39915827 0.44780052 7.18525388 0 10 C-0.66 10 -1.32 10 -2 10 C-2.33 10.66 -2.66 11.32 -3 12 C-4.41687119 7.74938644 -3.19320039 5.28148375 -2 1 C-1.34 1 -0.68 1 0 1 C0 0.67 0 0.34 0 0 Z " fill="#E731F8" transform="translate(132,81)"/>
<path d="M0 0 C0.33 0 0.66 0 1 0 C0.67 3.3 0.34 6.6 0 10 C-0.99 10 -1.98 10 -3 10 C-2.67 7.36 -2.34 4.72 -2 2 C-1.34 2 -0.68 2 0 2 C0 1.34 0 0.68 0 0 Z " fill="#D333D0" transform="translate(138,72)"/>
<path d="M0 0 C0.33 0 0.66 0 1 0 C1.05422947 1.4370809 1.09289723 2.87475462 1.125 4.3125 C1.14820313 5.11300781 1.17140625 5.91351563 1.1953125 6.73828125 C1 9 1 9 -1 12 C-2.9453125 12.51171875 -2.9453125 12.51171875 -5.125 12.6875 C-7.043125 12.8421875 -7.043125 12.8421875 -9 13 C-9 12.34 -9 11.68 -9 11 C-6.69 10.34 -4.38 9.68 -2 9 C-1.34 6.03 -0.68 3.06 0 0 Z " fill="#823FAC" transform="translate(169,157)"/>
<path d="M0 0 C0.33 0.66 0.66 1.32 1 2 C1.9590625 2.3403125 1.9590625 2.3403125 2.9375 2.6875 C5 4 5 4 6.25 7.625 C6.4975 8.73875 6.745 9.8525 7 11 C6.01 11 5.02 11 4 11 C3.34 8.36 2.68 5.72 2 3 C1.34 3 0.68 3 0 3 C-0.33 3.66 -0.66 4.32 -1 5 C-0.67 3.35 -0.34 1.7 0 0 Z " fill="#9940D0" transform="translate(98,93)"/>
<path d="M0 0 C1.32 0.33 2.64 0.66 4 1 C4.6875 2.6875 4.6875 2.6875 5 5 C3.625 7.75 3.625 7.75 2 10 C1.67 10 1.34 10 1 10 C1.020625 8.906875 1.04125 7.81375 1.0625 6.6875 C1.18544452 3.05615809 1.18544452 3.05615809 0 0 Z " fill="#B63FF9" transform="translate(93,90)"/>
<path d="M0 0 C2.475 0.495 2.475 0.495 5 1 C5.33 1.99 5.66 2.98 6 4 C5 5 5 5 2.4375 5.0625 C1.2309375 5.0315625 1.2309375 5.0315625 0 5 C0 3.35 0 1.7 0 0 Z " fill="#F924CF" transform="translate(138,33)"/>
<path d="M0 0 C0.66 0 1.32 0 2 0 C1.49202991 4.3177458 0.80317221 8.03302114 -1 12 C-1.66 12 -2.32 12 -3 12 C-2.01 8.04 -1.02 4.08 0 0 Z " fill="#5739C3" transform="translate(86,124)"/>
<path d="M0 0 C0.66 0 1.32 0 2 0 C0.125 7.625 0.125 7.625 -1 11 C-1.66 11 -2.32 11 -3 11 C-2.67 8.69 -2.34 6.38 -2 4 C-1.34 4 -0.68 4 0 4 C0 2.68 0 1.36 0 0 Z " fill="#B440ED" transform="translate(123,112)"/>
<path d="M0 0 C0.33 0 0.66 0 1 0 C1.16682272 4.92127034 1.24828052 8.50343896 -1 13 C-2.53690745 10.58959839 -3.09752136 9.49917715 -2.5390625 6.640625 C-2.23742187 5.85171875 -1.93578125 5.0628125 -1.625 4.25 C-1.32851562 3.45078125 -1.03203125 2.6515625 -0.7265625 1.828125 C-0.48679687 1.22484375 -0.24703125 0.6215625 0 0 Z " fill="#AF4CC3" transform="translate(123,88)"/>
<path d="M0 0 C0.66 0 1.32 0 2 0 C3.76462683 3.08809695 4 4.23312136 4 8 C2.68 7.67 1.36 7.34 0 7 C0 4.69 0 2.38 0 0 Z " fill="#FA26CE" transform="translate(162,54)"/>
<path d="M0 0 C3.90381822 3.90381822 3.56244183 5.66179036 4 11 C3.01 11 2.02 11 1 11 C0.67 7.37 0.34 3.74 0 0 Z " fill="#B03FE6" transform="translate(109,96)"/>
<path d="M0 0 C1.98 0.495 1.98 0.495 4 1 C4.625 3.375 4.625 3.375 5 6 C4.34 6.66 3.68 7.32 3 8 C0.875 7.625 0.875 7.625 -1 7 C-0.01 6.67 0.98 6.34 2 6 C1.34 4.02 0.68 2.04 0 0 Z " fill="#2D53E7" transform="translate(58,160)"/>
<path d="M0 0 C2.0625 0.4375 2.0625 0.4375 4 1 C3.34 1 2.68 1 2 1 C1.67 2.65 1.34 4.3 1 6 C0.01 6.33 -0.98 6.66 -2 7 C-1.125 1.125 -1.125 1.125 0 0 Z " fill="#C44BBB" transform="translate(132,61)"/>
<path d="M0 0 C0.99 0 1.98 0 3 0 C2.34 4.62 1.68 9.24 1 14 C0.67 14 0.34 14 0 14 C0 9.38 0 4.76 0 0 Z " fill="#7A40DF" transform="translate(39,46)"/>
<path d="M0 0 C2.97 0.495 2.97 0.495 6 1 C5.67 1.99 5.34 2.98 5 4 C3.35 4.33 1.7 4.66 0 5 C0 3.35 0 1.7 0 0 Z " fill="#C43EEB" transform="translate(98,76)"/>
<path d="M0 0 C0.99 0 1.98 0 3 0 C2.67 2.31 2.34 4.62 2 7 C1.01 6.67 0.02 6.34 -1 6 C-0.67 4.02 -0.34 2.04 0 0 Z " fill="#9F3EE9" transform="translate(110,115)"/>
<path d="M0 0 C0.66 0.99 1.32 1.98 2 3 C1.125 6.1875 1.125 6.1875 0 9 C-2 6 -2 6 -1.6875 3.9375 C-1 2 -1 2 0 0 Z " fill="#BA3FFA" transform="translate(109,100)"/>
<path d="M0 0 C1.32 0.66 2.64 1.32 4 2 C3.01 2.33 2.02 2.66 1 3 C-0.20882096 5.00016466 -0.20882096 5.00016466 -1 7 C-1.66 6.67 -2.32 6.34 -3 6 C-2.67 4.68 -2.34 3.36 -2 2 C-1.34 2 -0.68 2 0 2 C0 1.34 0 0.68 0 0 Z " fill="#EE25E3" transform="translate(135,63)"/>
<path d="M0 0 C1.65 0 3.3 0 5 0 C4.67 0.99 4.34 1.98 4 3 C3.34 2.67 2.68 2.34 2 2 C1.67 2.99 1.34 3.98 1 5 C0.34 5 -0.32 5 -1 5 C-0.67 3.35 -0.34 1.7 0 0 Z " fill="#BB43CE" transform="translate(162,135)"/>
<path d="M0 0 C0.99 0 1.98 0 3 0 C3 1.98 3 3.96 3 6 C2.01 6.33 1.02 6.66 0 7 C0 4.69 0 2.38 0 0 Z " fill="#DD39B3" transform="translate(158,40)"/>
<path d="M0 0 C0.66 0.66 1.32 1.32 2 2 C1.34 3.98 0.68 5.96 0 8 C-0.99 7.67 -1.98 7.34 -3 7 C-2.01 4.69 -1.02 2.38 0 0 Z " fill="#733CC7" transform="translate(120,128)"/>
<path d="" fill="#FFFFFF" transform="translate(0,0)"/>
<path d="" fill="#FFFFFF" transform="translate(0,0)"/>
<path d="" fill="#FFFFFF" transform="translate(0,0)"/>
<path d="" fill="#FFFFFF" transform="translate(0,0)"/>
<path d="" fill="#FFFFFF" transform="translate(0,0)"/>
<path d="" fill="#FFFFFF" transform="translate(0,0)"/>
<path d="" fill="#FFFFFF" transform="translate(0,0)"/>
<path d="" fill="#FFFFFF" transform="translate(0,0)"/>
<path d="" fill="#FFFFFF" transform="translate(0,0)"/>
<path d="" fill="#FFFFFF" transform="translate(0,0)"/>
<path d="" fill="#FFFFFF" transform="translate(0,0)"/>
<path d="" fill="#FFFFFF" transform="translate(0,0)"/>
<path d="" fill="#FFFFFF" transform="translate(0,0)"/>
<path d="" fill="#FFFFFF" transform="translate(0,0)"/>
<path d="" fill="#FFFFFF" transform="translate(0,0)"/>
<path d="" fill="#FFFFFF" transform="translate(0,0)"/>
<path d="" fill="#FFFFFF" transform="translate(0,0)"/>
<path d="" fill="#FFFFFF" transform="translate(0,0)"/>
<path d="" fill="#FFFFFF" transform="translate(0,0)"/>
<path d="" fill="#FFFFFF" transform="translate(0,0)"/>
<path d="" fill="#FFFFFF" transform="translate(0,0)"/>
<path d="" fill="#FFFFFF" transform="translate(0,0)"/>
<path d="" fill="#FFFFFF" transform="translate(0,0)"/>
<path d="" fill="#FFFFFF" transform="translate(0,0)"/>
<path d="" fill="#FFFFFF" transform="translate(0,0)"/>
<path d="" fill="#FFFFFF" transform="translate(0,0)"/>
<path d="" fill="#FFFFFF" transform="translate(0,0)"/>
<path d="" fill="#FFFFFF" transform="translate(0,0)"/>
<path d="" fill="#FFFFFF" transform="translate(0,0)"/>
<path d="" fill="#FFFFFF" transform="translate(0,0)"/>
<path d="" fill="#FFFFFF" transform="translate(0,0)"/>
<path d="" fill="#FFFFFF" transform="translate(0,0)"/>
<path d="" fill="#FFFFFF" transform="translate(0,0)"/>
<path d="" fill="#FFFFFF" transform="translate(0,0)"/>
<path d="" fill="#FFFFFF" transform="translate(0,0)"/>
<path d="" fill="#FFFFFF" transform="translate(0,0)"/>
<path d="" fill="#FFFFFF" transform="translate(0,0)"/>
<path d="" fill="#FFFFFF" transform="translate(0,0)"/>
<path d="" fill="#FFFFFF" transform="translate(0,0)"/>
<path d="" fill="#FFFFFF" transform="translate(0,0)"/>
<path d="" fill="#FFFFFF" transform="translate(0,0)"/>
<path d="" fill="#FFFFFF" transform="translate(0,0)"/>
<path d="" fill="#FFFFFF" transform="translate(0,0)"/>
<path d="" fill="#FFFFFF" transform="translate(0,0)"/>
<path d="" fill="#FFFFFF" transform="translate(0,0)"/>
<path d="" fill="#FFFFFF" transform="translate(0,0)"/>
<path d="" fill="#FFFFFF" transform="translate(0,0)"/>
<path d="" fill="#FFFFFF" transform="translate(0,0)"/>
<path d="" fill="#FFFFFF" transform="translate(0,0)"/>
<path d="" fill="#FFFFFF" transform="translate(0,0)"/>
<path d="" fill="#FFFFFF" transform="translate(0,0)"/>
<path d="" fill="#FFFFFF" transform="translate(0,0)"/>
<path d="" fill="#FFFFFF" transform="translate(0,0)"/>
<path d="" fill="#FFFFFF" transform="translate(0,0)"/>
<path d="" fill="#FFFFFF" transform="translate(0,0)"/>
<path d="" fill="#FFFFFF" transform="translate(0,0)"/>
<path d="" fill="#FFFFFF" transform="translate(0,0)"/>
<path d="" fill="#FFFFFF" transform="translate(0,0)"/>
<path d="" fill="#FFFFFF" transform="translate(0,0)"/>
<path d="" fill="#FFFFFF" transform="translate(0,0)"/>
<path d="" fill="#FFFFFF" transform="translate(0,0)"/>
<path d="" fill="#FFFFFF" transform="translate(0,0)"/>
<path d="" fill="#FFFFFF" transform="translate(0,0)"/>
<path d="" fill="#FFFFFF" transform="translate(0,0)"/>
<path d="" fill="#FFFFFF" transform="translate(0,0)"/>
<path d="" fill="#FFFFFF" transform="translate(0,0)"/>
<path d="" fill="#FFFFFF" transform="translate(0,0)"/>
<path d="" fill="#FFFFFF" transform="translate(0,0)"/>
<path d="" fill="#FFFFFF" transform="translate(0,0)"/>
<path d="" fill="#FFFFFF" transform="translate(0,0)"/>
<path d="" fill="#FFFFFF" transform="translate(0,0)"/>
<path d="" fill="#FFFFFF" transform="translate(0,0)"/>
</svg>
