<svg width="61" height="60" viewBox="0 0 61 60" fill="none" xmlns="http://www.w3.org/2000/svg">
<path d="M47.0859 45.0234C44.4961 40.5234 39.6328 37.5 34.0781 37.5H26.5781C21.0234 37.5 16.1602 40.5234 13.5703 45.0234C17.6953 49.6172 23.6719 52.5 30.3281 52.5C36.9844 52.5 42.9609 49.6055 47.0859 45.0234ZM0.328125 30C0.328125 22.0435 3.48883 14.4129 9.11492 8.7868C14.741 3.16071 22.3716 0 30.3281 0C38.2846 0 45.9152 3.16071 51.5413 8.7868C57.1674 14.4129 60.3281 22.0435 60.3281 30C60.3281 37.9565 57.1674 45.5871 51.5413 51.2132C45.9152 56.8393 38.2846 60 30.3281 60C22.3716 60 14.741 56.8393 9.11492 51.2132C3.48883 45.5871 0.328125 37.9565 0.328125 30ZM30.3281 31.875C32.5659 31.875 34.712 30.9861 36.2943 29.4037C37.8767 27.8214 38.7656 25.6753 38.7656 23.4375C38.7656 21.1997 37.8767 19.0536 36.2943 17.4713C34.712 15.8889 32.5659 15 30.3281 15C28.0904 15 25.9443 15.8889 24.3619 17.4713C22.7796 19.0536 21.8906 21.1997 21.8906 23.4375C21.8906 25.6753 22.7796 27.8214 24.3619 29.4037C25.9443 30.9861 28.0904 31.875 30.3281 31.875Z" fill="#6366F1"/>
</svg>
