<svg width="61" height="54" viewBox="0 0 61 54" fill="none" xmlns="http://www.w3.org/2000/svg">
<path d="M0.65625 8.25C0.65625 4.11328 4.01953 0.75 8.15625 0.75H53.1562C57.293 0.75 60.6562 4.11328 60.6562 8.25V45.75C60.6562 49.8867 57.293 53.25 53.1562 53.25H8.15625C4.01953 53.25 0.65625 49.8867 0.65625 45.75V8.25ZM38.6016 20.7305C38.0742 19.957 37.207 19.5 36.2812 19.5C35.3555 19.5 34.4766 19.957 33.9609 20.7305L23.7656 35.6836L20.6602 31.8047C20.1211 31.1367 19.3125 30.75 18.4688 30.75C17.625 30.75 16.8047 31.1367 16.2773 31.8047L8.77734 41.1797C8.09766 42.0234 7.96875 43.1836 8.4375 44.1562C8.90625 45.1289 9.89062 45.75 10.9688 45.75H22.2188H25.9688H50.3438C51.3867 45.75 52.3477 45.1758 52.8281 44.25C53.3086 43.3242 53.25 42.2109 52.6641 41.3555L38.6016 20.7305ZM13.7812 19.5C15.2731 19.5 16.7038 18.9074 17.7587 17.8525C18.8136 16.7976 19.4062 15.3668 19.4062 13.875C19.4062 12.3832 18.8136 10.9524 17.7587 9.89752C16.7038 8.84263 15.2731 8.25 13.7812 8.25C12.2894 8.25 10.8587 8.84263 9.80377 9.89752C8.74888 10.9524 8.15625 12.3832 8.15625 13.875C8.15625 15.3668 8.74888 16.7976 9.80377 17.8525C10.8587 18.9074 12.2894 19.5 13.7812 19.5Z" fill="#3B82F6"/>
</svg>
