<svg width="79" height="42" viewBox="0 0 79 42" fill="none" xmlns="http://www.w3.org/2000/svg">
<path d="M59.1807 1.40097C54.0857 -0.795629 48.6459 -0.402376 43.4428 2.53281L42.9205 2.82904C41 3.92 40.8856 3.98519 39.4183 3.98519C37.951 3.98519 37.8364 3.92012 35.9161 2.82904L35.393 2.53281C30.1914 -0.40308 24.7492 -0.793632 19.6558 1.40097C9.45019 5.80146 0 20.3273 0 21.6347C0 21.8633 0.0900946 22.1668 0.0872299 22.1582C0.151829 22.3554 9.63238 41.8989 39.4182 41.8989C69.2039 41.8989 78.6845 22.3554 78.7491 22.1581C78.7918 22.0275 78.8363 21.7957 78.8363 21.6346C78.8363 20.3273 69.3924 5.80428 59.1807 1.40097ZM44.903 23.6421C43.2323 24.368 41.3408 24.6011 39.4328 24.6011C39.4289 24.6011 39.4242 24.6011 39.4203 24.6011C39.4133 24.5998 39.4094 24.6004 39.4033 24.6011C37.3924 24.206 35.4305 23.8256 33.9338 23.4923C30.8928 22.8152 26.8917 21.56 24.2886 21.0694C27.7726 18.99 32.6023 14.4618 34.5604 14.4618C36.0761 14.4618 37.0427 15.0779 37.3924 15.3467C37.4631 15.4335 37.5426 15.5171 37.6313 15.5963C38.4316 16.3074 39.7464 16.4337 40.7217 15.8937C40.9132 15.7883 41.086 15.658 41.2339 15.5112L41.2348 15.5119C41.2799 15.4692 42.3527 14.4618 44.2754 14.4618C46.233 14.462 51.9781 18.2377 55.4604 20.3162C53.3062 21.3494 47.6685 22.928 44.903 23.6421Z" fill="#EF4444"/>
</svg>
