<svg width="53" height="54" viewBox="0 0 53 54" fill="none" xmlns="http://www.w3.org/2000/svg">
<path d="M20.0938 0.75H3.21875C1.66016 0.75 0.40625 2.00391 0.40625 3.5625V20.4375C0.40625 21.5742 1.08594 22.6055 2.14062 23.0391C3.19531 23.4727 4.40234 23.2383 5.21094 22.4297L9.89844 17.7422L19.1562 27L9.89844 36.2578L5.21094 31.5703C4.40234 30.7617 3.19531 30.5273 2.14062 30.9609C1.08594 31.3945 0.40625 32.4258 0.40625 33.5625V50.4375C0.40625 51.9961 1.66016 53.25 3.21875 53.25H20.0938C21.2305 53.25 22.2617 52.5703 22.6953 51.5156C23.1289 50.4609 22.8945 49.2539 22.0859 48.4453L17.3984 43.7578L26.6562 34.5L35.9141 43.7578L31.2266 48.4453C30.418 49.2539 30.1836 50.4609 30.6172 51.5156C31.0508 52.5703 32.082 53.25 33.2188 53.25H50.0938C51.6523 53.25 52.9062 51.9961 52.9062 50.4375V33.5625C52.9062 32.4258 52.2266 31.3945 51.1719 30.9609C50.1172 30.5273 48.9102 30.7617 48.1016 31.5703L43.4141 36.2578L34.1562 27L43.4141 17.7422L48.1016 22.4297C48.9102 23.2383 50.1172 23.4727 51.1719 23.0391C52.2266 22.6055 52.9062 21.5742 52.9062 20.4375V3.5625C52.9062 2.00391 51.6523 0.75 50.0938 0.75H33.2188C32.082 0.75 31.0508 1.42969 30.6172 2.48437C30.1836 3.53906 30.418 4.74609 31.2266 5.55469L35.9141 10.2422L26.6562 19.5L17.3984 10.2422L22.0859 5.55469C22.8945 4.74609 23.1289 3.53906 22.6953 2.48437C22.2617 1.42969 21.2305 0.75 20.0938 0.75Z" fill="#EC4899"/>
</svg>
