<svg width="42" height="60" viewBox="0 0 42 60" fill="none" xmlns="http://www.w3.org/2000/svg">
<path d="M21.3281 0C15.1172 0 10.0781 5.03906 10.0781 11.25V30C10.0781 36.2109 15.1172 41.25 21.3281 41.25C27.5391 41.25 32.5781 36.2109 32.5781 30V11.25C32.5781 5.03906 27.5391 0 21.3281 0ZM6.32812 25.3125C6.32812 23.7539 5.07422 22.5 3.51562 22.5C1.95703 22.5 0.703125 23.7539 0.703125 25.3125V30C0.703125 40.4414 8.46094 49.0664 18.5156 50.4375V54.375H12.8906C11.332 54.375 10.0781 55.6289 10.0781 57.1875C10.0781 58.7461 11.332 60 12.8906 60H21.3281H29.7656C31.3242 60 32.5781 58.7461 32.5781 57.1875C32.5781 55.6289 31.3242 54.375 29.7656 54.375H24.1406V50.4375C34.1953 49.0664 41.9531 40.4414 41.9531 30V25.3125C41.9531 23.7539 40.6992 22.5 39.1406 22.5C37.582 22.5 36.3281 23.7539 36.3281 25.3125V30C36.3281 38.2852 29.6133 45 21.3281 45C13.043 45 6.32812 38.2852 6.32812 30V25.3125Z" fill="#EAB308"/>
</svg>
