<svg width="61" height="60" viewBox="0 0 61 60" fill="none" xmlns="http://www.w3.org/2000/svg">
<path d="M0.265625 13.6364V5.45455C0.265625 3.95455 0.800171 2.67 1.86926 1.60091C2.93653 0.533636 4.22017 0 5.72017 0H13.902V5.45455H5.72017V13.6364H0.265625ZM13.902 60H5.72017C4.22017 60 2.93653 59.4664 1.86926 58.3991C0.800171 57.33 0.265625 56.0455 0.265625 54.5455V46.3636H5.72017V54.5455H13.902V60ZM46.6293 60V54.5455H54.8111V46.3636H60.2656V54.5455C60.2656 56.0455 59.732 57.33 58.6647 58.3991C57.5956 59.4664 56.3111 60 54.8111 60H46.6293ZM54.8111 13.6364V5.45455H46.6293V0H54.8111C56.3111 0 57.5956 0.533636 58.6647 1.60091C59.732 2.67 60.2656 3.95455 60.2656 5.45455V13.6364H54.8111Z" fill="#22C55E"/>
<path fill-rule="evenodd" clip-rule="evenodd" d="M30.2706 49.092C40.8142 49.092 49.3615 40.5447 49.3615 30.0011C49.3615 19.4574 40.8142 10.9102 30.2706 10.9102C19.727 10.9102 11.1797 19.4574 11.1797 30.0011C11.1797 40.5447 19.727 49.092 30.2706 49.092ZM19.3608 33.508L24.1972 28.8327V32.3392H32.6942V34.6769H24.1972V38.1833L19.3608 33.508ZM36.3427 21.8197L41.179 26.495L36.3427 31.1704V27.6639H27.8457V25.3262H36.3427V21.8197Z" fill="#22C55E"/>
</svg>
