<svg width="61" height="60" viewBox="0 0 61 60" fill="none" xmlns="http://www.w3.org/2000/svg">
<path d="M34.4062 52.5H8.15625V26.25H15.6562V18.75H8.15625C4.01953 18.75 0.65625 22.1133 0.65625 26.25V52.5C0.65625 56.6367 4.01953 60 8.15625 60H34.4062C38.543 60 41.9062 56.6367 41.9062 52.5V45H34.4062V52.5ZM26.9062 41.25H53.1562C57.293 41.25 60.6562 37.8867 60.6562 33.75V7.5C60.6562 3.36328 57.293 0 53.1562 0H26.9062C22.7695 0 19.4062 3.36328 19.4062 7.5V33.75C19.4062 37.8867 22.7695 41.25 26.9062 41.25Z" fill="#A855F7"/>
</svg>
